G04 #@! TF.GenerationSoftware,KiCad,Pcbnew,5.1.9+dfsg1-1*
G04 #@! TF.CreationDate,2021-07-15T21:40:15-06:00*
G04 #@! TF.ProjectId,ESP_Programmer,4553505f-5072-46f6-9772-616d6d65722e,rev?*
G04 #@! TF.SameCoordinates,Original*
G04 #@! TF.FileFunction,Legend,Top*
G04 #@! TF.FilePolarity,Positive*
%FSLAX46Y46*%
G04 Gerber Fmt 4.6, Leading zero omitted, Abs format (unit mm)*
G04 Created by KiCad (PCBNEW 5.1.9+dfsg1-1) date 2021-07-15 21:40:15*
%MOMM*%
%LPD*%
G01*
G04 APERTURE LIST*
G04 #@! TA.AperFunction,Profile*
%ADD10C,0.050000*%
G04 #@! TD*
%ADD11C,0.120000*%
%ADD12C,0.150000*%
%ADD13C,0.070000*%
G04 APERTURE END LIST*
D10*
X184658000Y-116840000D02*
X195580000Y-116840000D01*
X184658000Y-88138000D02*
X184658000Y-116840000D01*
X184912000Y-88138000D02*
X184658000Y-88138000D01*
X226822000Y-88138000D02*
X184912000Y-88138000D01*
X226822000Y-116840000D02*
X226822000Y-88138000D01*
X226568000Y-116840000D02*
X226822000Y-116840000D01*
X195580000Y-116840000D02*
X226568000Y-116840000D01*
D11*
G04 #@! TO.C,R6*
X213974000Y-104359064D02*
X213974000Y-102904936D01*
X215794000Y-104359064D02*
X215794000Y-102904936D01*
G04 #@! TO.C,R5*
X214736000Y-96993064D02*
X214736000Y-95538936D01*
X216556000Y-96993064D02*
X216556000Y-95538936D01*
G04 #@! TO.C,D2*
X208610000Y-88527000D02*
X204550000Y-88527000D01*
X204550000Y-88527000D02*
X204550000Y-90797000D01*
X204550000Y-90797000D02*
X208610000Y-90797000D01*
G04 #@! TO.C,D1*
X208610000Y-91321000D02*
X204550000Y-91321000D01*
X204550000Y-91321000D02*
X204550000Y-93591000D01*
X204550000Y-93591000D02*
X208610000Y-93591000D01*
G04 #@! TO.C,U1*
X202558000Y-112020000D02*
X202058000Y-112020000D01*
X202558000Y-112020000D02*
X202558000Y-111520000D01*
X202558000Y-106420000D02*
X202058000Y-106420000D01*
X202558000Y-106420000D02*
X202558000Y-106920000D01*
X192158000Y-106420000D02*
X192658000Y-106420000D01*
X192158000Y-106420000D02*
X192158000Y-106920000D01*
X192833000Y-111970000D02*
X192833000Y-113645000D01*
X192683000Y-111970000D02*
X192833000Y-111970000D01*
X192158000Y-111445000D02*
X192683000Y-111970000D01*
X192158000Y-111270000D02*
X192158000Y-111445000D01*
G04 #@! TO.C,SW2*
X191302002Y-91455997D02*
X192202003Y-90555999D01*
X191302002Y-93455998D02*
X192202003Y-94355996D01*
X195402002Y-94355996D02*
X196302003Y-93455998D01*
X195402002Y-90555999D02*
X196302003Y-91455997D01*
X192802002Y-89955997D02*
X194802003Y-89955997D01*
X196302003Y-93455998D02*
X196302003Y-91455997D01*
X191302002Y-93455998D02*
X191302002Y-91455997D01*
X192802002Y-94955998D02*
X194802003Y-94955998D01*
X190977004Y-89305999D02*
G75*
G03*
X190977004Y-89305999I-125001J0D01*
G01*
G04 #@! TO.C,SW1*
X215153997Y-93685998D02*
X214253999Y-92785997D01*
X217153998Y-93685998D02*
X218053996Y-92785997D01*
X218053996Y-89585998D02*
X217153998Y-88685997D01*
X214253999Y-89585998D02*
X215153997Y-88685997D01*
X213653997Y-92185998D02*
X213653997Y-90185997D01*
X217153998Y-88685997D02*
X215153997Y-88685997D01*
X217153998Y-93685998D02*
X215153997Y-93685998D01*
X218653998Y-92185998D02*
X218653998Y-90185997D01*
X213129000Y-94135997D02*
G75*
G03*
X213129000Y-94135997I-125001J0D01*
G01*
G04 #@! TO.C,R4*
X205137936Y-103018000D02*
X206342064Y-103018000D01*
X205137936Y-101198000D02*
X206342064Y-101198000D01*
G04 #@! TO.C,R3*
X205391936Y-98192000D02*
X206596064Y-98192000D01*
X205391936Y-96372000D02*
X206596064Y-96372000D01*
G04 #@! TO.C,R2*
X216502064Y-111358000D02*
X215297936Y-111358000D01*
X216502064Y-113178000D02*
X215297936Y-113178000D01*
G04 #@! TO.C,R1*
X210914064Y-114406000D02*
X209709936Y-114406000D01*
X210914064Y-116226000D02*
X209709936Y-116226000D01*
G04 #@! TO.C,Q1*
X206203000Y-112992000D02*
X206203000Y-113217000D01*
X205903000Y-112992000D02*
X206203000Y-112992000D01*
X206203000Y-114592000D02*
X206203000Y-114342000D01*
X205928000Y-114592000D02*
X206203000Y-114592000D01*
X203753000Y-112992000D02*
X203753000Y-113292000D01*
X204053000Y-112992000D02*
X203753000Y-112992000D01*
X204053000Y-114592000D02*
X204053000Y-114992000D01*
X203753000Y-114267000D02*
X204053000Y-114592000D01*
G04 #@! TO.C,JP1*
X186052000Y-95774000D02*
X188852000Y-95774000D01*
X189502000Y-96474000D02*
X189502000Y-97074000D01*
X188852000Y-97774000D02*
X186052000Y-97774000D01*
X185402000Y-97074000D02*
X185402000Y-96474000D01*
X185402000Y-96474000D02*
G75*
G02*
X186102000Y-95774000I700000J0D01*
G01*
X186102000Y-97774000D02*
G75*
G02*
X185402000Y-97074000I0J700000D01*
G01*
X189502000Y-97074000D02*
G75*
G02*
X188802000Y-97774000I-700000J0D01*
G01*
X188802000Y-95774000D02*
G75*
G02*
X189502000Y-96474000I0J-700000D01*
G01*
G04 #@! TO.C,J4*
X223460000Y-94682000D02*
X224790000Y-94682000D01*
X223460000Y-96012000D02*
X223460000Y-94682000D01*
X223460000Y-97282000D02*
X226120000Y-97282000D01*
X226120000Y-97282000D02*
X226120000Y-110042000D01*
X223460000Y-97282000D02*
X223460000Y-110042000D01*
X223460000Y-110042000D02*
X226120000Y-110042000D01*
G04 #@! TO.C,J3*
X217364000Y-94682000D02*
X218694000Y-94682000D01*
X217364000Y-96012000D02*
X217364000Y-94682000D01*
X217364000Y-97282000D02*
X220024000Y-97282000D01*
X220024000Y-97282000D02*
X220024000Y-110042000D01*
X217364000Y-97282000D02*
X217364000Y-110042000D01*
X217364000Y-110042000D02*
X220024000Y-110042000D01*
G04 #@! TO.C,J2*
X192218000Y-101152000D02*
X192218000Y-99822000D01*
X193548000Y-101152000D02*
X192218000Y-101152000D01*
X194818000Y-101152000D02*
X194818000Y-98492000D01*
X194818000Y-98492000D02*
X202498000Y-98492000D01*
X194818000Y-101152000D02*
X202498000Y-101152000D01*
X202498000Y-101152000D02*
X202498000Y-98492000D01*
G04 #@! TO.C,J1*
X189322000Y-102794000D02*
X189522000Y-102794000D01*
X189522000Y-102794000D02*
X189522000Y-103094000D01*
X189322000Y-102794000D02*
X188122000Y-102794000D01*
X183922000Y-108594000D02*
X184422000Y-108594000D01*
X183922000Y-108094000D02*
X183922000Y-108594000D01*
X183922000Y-100194000D02*
X184422000Y-100194000D01*
X183922000Y-100194000D02*
X183922000Y-100694000D01*
X189172000Y-100194000D02*
X188672000Y-100194000D01*
X189172000Y-100694000D02*
X189172000Y-100194000D01*
X189172000Y-108594000D02*
X188672000Y-108594000D01*
X189172000Y-108594000D02*
X189172000Y-108094000D01*
G04 #@! TO.C,C7*
X209927436Y-110384000D02*
X211131564Y-110384000D01*
X209927436Y-108564000D02*
X211131564Y-108564000D01*
G04 #@! TO.C,C6*
X203255000Y-107615000D02*
X207340000Y-107615000D01*
X203255000Y-105745000D02*
X203255000Y-107615000D01*
X207340000Y-105745000D02*
X203255000Y-105745000D01*
G04 #@! TO.C,C5*
X210471936Y-105558000D02*
X211676064Y-105558000D01*
X210471936Y-103738000D02*
X211676064Y-103738000D01*
G04 #@! TO.C,C4*
X208589000Y-100757000D02*
X212674000Y-100757000D01*
X208589000Y-98887000D02*
X208589000Y-100757000D01*
X212674000Y-98887000D02*
X208589000Y-98887000D01*
G04 #@! TO.C,C3*
X199041936Y-95144000D02*
X200246064Y-95144000D01*
X199041936Y-93324000D02*
X200246064Y-93324000D01*
G04 #@! TO.C,C2*
X200500064Y-91334000D02*
X199295936Y-91334000D01*
X200500064Y-89514000D02*
X199295936Y-89514000D01*
G04 #@! TO.C,C1*
X209605000Y-96439000D02*
X213690000Y-96439000D01*
X209605000Y-94569000D02*
X209605000Y-96439000D01*
X213690000Y-94569000D02*
X209605000Y-94569000D01*
G04 #@! TD*
G04 #@! TO.C,R6*
D12*
X215336380Y-103798666D02*
X214860190Y-104132000D01*
X215336380Y-104370095D02*
X214336380Y-104370095D01*
X214336380Y-103989142D01*
X214384000Y-103893904D01*
X214431619Y-103846285D01*
X214526857Y-103798666D01*
X214669714Y-103798666D01*
X214764952Y-103846285D01*
X214812571Y-103893904D01*
X214860190Y-103989142D01*
X214860190Y-104370095D01*
X214336380Y-102941523D02*
X214336380Y-103132000D01*
X214384000Y-103227238D01*
X214431619Y-103274857D01*
X214574476Y-103370095D01*
X214764952Y-103417714D01*
X215145904Y-103417714D01*
X215241142Y-103370095D01*
X215288761Y-103322476D01*
X215336380Y-103227238D01*
X215336380Y-103036761D01*
X215288761Y-102941523D01*
X215241142Y-102893904D01*
X215145904Y-102846285D01*
X214907809Y-102846285D01*
X214812571Y-102893904D01*
X214764952Y-102941523D01*
X214717333Y-103036761D01*
X214717333Y-103227238D01*
X214764952Y-103322476D01*
X214812571Y-103370095D01*
X214907809Y-103417714D01*
G04 #@! TO.C,R5*
X216098380Y-96432666D02*
X215622190Y-96766000D01*
X216098380Y-97004095D02*
X215098380Y-97004095D01*
X215098380Y-96623142D01*
X215146000Y-96527904D01*
X215193619Y-96480285D01*
X215288857Y-96432666D01*
X215431714Y-96432666D01*
X215526952Y-96480285D01*
X215574571Y-96527904D01*
X215622190Y-96623142D01*
X215622190Y-97004095D01*
X215098380Y-95527904D02*
X215098380Y-96004095D01*
X215574571Y-96051714D01*
X215526952Y-96004095D01*
X215479333Y-95908857D01*
X215479333Y-95670761D01*
X215526952Y-95575523D01*
X215574571Y-95527904D01*
X215669809Y-95480285D01*
X215907904Y-95480285D01*
X216003142Y-95527904D01*
X216050761Y-95575523D01*
X216098380Y-95670761D01*
X216098380Y-95908857D01*
X216050761Y-96004095D01*
X216003142Y-96051714D01*
G04 #@! TO.C,D2*
X202969904Y-89352380D02*
X202969904Y-88352380D01*
X203208000Y-88352380D01*
X203350857Y-88400000D01*
X203446095Y-88495238D01*
X203493714Y-88590476D01*
X203541333Y-88780952D01*
X203541333Y-88923809D01*
X203493714Y-89114285D01*
X203446095Y-89209523D01*
X203350857Y-89304761D01*
X203208000Y-89352380D01*
X202969904Y-89352380D01*
X203922285Y-88447619D02*
X203969904Y-88400000D01*
X204065142Y-88352380D01*
X204303238Y-88352380D01*
X204398476Y-88400000D01*
X204446095Y-88447619D01*
X204493714Y-88542857D01*
X204493714Y-88638095D01*
X204446095Y-88780952D01*
X203874666Y-89352380D01*
X204493714Y-89352380D01*
G04 #@! TO.C,D1*
X202969904Y-92654380D02*
X202969904Y-91654380D01*
X203208000Y-91654380D01*
X203350857Y-91702000D01*
X203446095Y-91797238D01*
X203493714Y-91892476D01*
X203541333Y-92082952D01*
X203541333Y-92225809D01*
X203493714Y-92416285D01*
X203446095Y-92511523D01*
X203350857Y-92606761D01*
X203208000Y-92654380D01*
X202969904Y-92654380D01*
X204493714Y-92654380D02*
X203922285Y-92654380D01*
X204208000Y-92654380D02*
X204208000Y-91654380D01*
X204112761Y-91797238D01*
X204017523Y-91892476D01*
X203922285Y-91940095D01*
G04 #@! TO.C,U1*
D13*
X196977047Y-103436190D02*
X196977047Y-103840952D01*
X197000857Y-103888571D01*
X197024666Y-103912380D01*
X197072285Y-103936190D01*
X197167523Y-103936190D01*
X197215142Y-103912380D01*
X197238952Y-103888571D01*
X197262761Y-103840952D01*
X197262761Y-103436190D01*
X197762761Y-103936190D02*
X197477047Y-103936190D01*
X197619904Y-103936190D02*
X197619904Y-103436190D01*
X197572285Y-103507619D01*
X197524666Y-103555238D01*
X197477047Y-103579047D01*
G04 #@! TO.C,SW2*
X190956380Y-93585261D02*
X190980190Y-93513833D01*
X190980190Y-93394785D01*
X190956380Y-93347166D01*
X190932571Y-93323357D01*
X190884952Y-93299547D01*
X190837333Y-93299547D01*
X190789714Y-93323357D01*
X190765904Y-93347166D01*
X190742095Y-93394785D01*
X190718285Y-93490023D01*
X190694476Y-93537642D01*
X190670666Y-93561452D01*
X190623047Y-93585261D01*
X190575428Y-93585261D01*
X190527809Y-93561452D01*
X190504000Y-93537642D01*
X190480190Y-93490023D01*
X190480190Y-93370976D01*
X190504000Y-93299547D01*
X190480190Y-93132880D02*
X190980190Y-93013833D01*
X190623047Y-92918595D01*
X190980190Y-92823357D01*
X190480190Y-92704309D01*
X190527809Y-92537642D02*
X190504000Y-92513833D01*
X190480190Y-92466214D01*
X190480190Y-92347166D01*
X190504000Y-92299547D01*
X190527809Y-92275738D01*
X190575428Y-92251928D01*
X190623047Y-92251928D01*
X190694476Y-92275738D01*
X190980190Y-92561452D01*
X190980190Y-92251928D01*
G04 #@! TO.C,SW1*
X211784380Y-91644071D02*
X211808190Y-91572642D01*
X211808190Y-91453595D01*
X211784380Y-91405976D01*
X211760571Y-91382166D01*
X211712952Y-91358357D01*
X211665333Y-91358357D01*
X211617714Y-91382166D01*
X211593904Y-91405976D01*
X211570095Y-91453595D01*
X211546285Y-91548833D01*
X211522476Y-91596452D01*
X211498666Y-91620261D01*
X211451047Y-91644071D01*
X211403428Y-91644071D01*
X211355809Y-91620261D01*
X211332000Y-91596452D01*
X211308190Y-91548833D01*
X211308190Y-91429785D01*
X211332000Y-91358357D01*
X211308190Y-91191690D02*
X211808190Y-91072642D01*
X211451047Y-90977404D01*
X211808190Y-90882166D01*
X211308190Y-90763119D01*
X211808190Y-90310738D02*
X211808190Y-90596452D01*
X211808190Y-90453595D02*
X211308190Y-90453595D01*
X211379619Y-90501214D01*
X211427238Y-90548833D01*
X211451047Y-90596452D01*
G04 #@! TO.C,R4*
X206926666Y-103858190D02*
X206760000Y-103620095D01*
X206640952Y-103858190D02*
X206640952Y-103358190D01*
X206831428Y-103358190D01*
X206879047Y-103382000D01*
X206902857Y-103405809D01*
X206926666Y-103453428D01*
X206926666Y-103524857D01*
X206902857Y-103572476D01*
X206879047Y-103596285D01*
X206831428Y-103620095D01*
X206640952Y-103620095D01*
X207355238Y-103524857D02*
X207355238Y-103858190D01*
X207236190Y-103334380D02*
X207117142Y-103691523D01*
X207426666Y-103691523D01*
G04 #@! TO.C,R3*
X207434666Y-99032190D02*
X207268000Y-98794095D01*
X207148952Y-99032190D02*
X207148952Y-98532190D01*
X207339428Y-98532190D01*
X207387047Y-98556000D01*
X207410857Y-98579809D01*
X207434666Y-98627428D01*
X207434666Y-98698857D01*
X207410857Y-98746476D01*
X207387047Y-98770285D01*
X207339428Y-98794095D01*
X207148952Y-98794095D01*
X207601333Y-98532190D02*
X207910857Y-98532190D01*
X207744190Y-98722666D01*
X207815619Y-98722666D01*
X207863238Y-98746476D01*
X207887047Y-98770285D01*
X207910857Y-98817904D01*
X207910857Y-98936952D01*
X207887047Y-98984571D01*
X207863238Y-99008380D01*
X207815619Y-99032190D01*
X207672761Y-99032190D01*
X207625142Y-99008380D01*
X207601333Y-98984571D01*
G04 #@! TO.C,R2*
X218864666Y-112494190D02*
X218698000Y-112256095D01*
X218578952Y-112494190D02*
X218578952Y-111994190D01*
X218769428Y-111994190D01*
X218817047Y-112018000D01*
X218840857Y-112041809D01*
X218864666Y-112089428D01*
X218864666Y-112160857D01*
X218840857Y-112208476D01*
X218817047Y-112232285D01*
X218769428Y-112256095D01*
X218578952Y-112256095D01*
X219055142Y-112041809D02*
X219078952Y-112018000D01*
X219126571Y-111994190D01*
X219245619Y-111994190D01*
X219293238Y-112018000D01*
X219317047Y-112041809D01*
X219340857Y-112089428D01*
X219340857Y-112137047D01*
X219317047Y-112208476D01*
X219031333Y-112494190D01*
X219340857Y-112494190D01*
G04 #@! TO.C,R1*
X213276666Y-115542190D02*
X213110000Y-115304095D01*
X212990952Y-115542190D02*
X212990952Y-115042190D01*
X213181428Y-115042190D01*
X213229047Y-115066000D01*
X213252857Y-115089809D01*
X213276666Y-115137428D01*
X213276666Y-115208857D01*
X213252857Y-115256476D01*
X213229047Y-115280285D01*
X213181428Y-115304095D01*
X212990952Y-115304095D01*
X213752857Y-115542190D02*
X213467142Y-115542190D01*
X213610000Y-115542190D02*
X213610000Y-115042190D01*
X213562380Y-115113619D01*
X213514761Y-115161238D01*
X213467142Y-115185047D01*
G04 #@! TO.C,Q1*
X204930380Y-111315809D02*
X204882761Y-111292000D01*
X204835142Y-111244380D01*
X204763714Y-111172952D01*
X204716095Y-111149142D01*
X204668476Y-111149142D01*
X204692285Y-111268190D02*
X204644666Y-111244380D01*
X204597047Y-111196761D01*
X204573238Y-111101523D01*
X204573238Y-110934857D01*
X204597047Y-110839619D01*
X204644666Y-110792000D01*
X204692285Y-110768190D01*
X204787523Y-110768190D01*
X204835142Y-110792000D01*
X204882761Y-110839619D01*
X204906571Y-110934857D01*
X204906571Y-111101523D01*
X204882761Y-111196761D01*
X204835142Y-111244380D01*
X204787523Y-111268190D01*
X204692285Y-111268190D01*
X205382761Y-111268190D02*
X205097047Y-111268190D01*
X205239904Y-111268190D02*
X205239904Y-110768190D01*
X205192285Y-110839619D01*
X205144666Y-110887238D01*
X205097047Y-110911047D01*
G04 #@! TO.C,JP1*
X187289333Y-94976190D02*
X187289333Y-95333333D01*
X187265523Y-95404761D01*
X187217904Y-95452380D01*
X187146476Y-95476190D01*
X187098857Y-95476190D01*
X187527428Y-95476190D02*
X187527428Y-94976190D01*
X187717904Y-94976190D01*
X187765523Y-95000000D01*
X187789333Y-95023809D01*
X187813142Y-95071428D01*
X187813142Y-95142857D01*
X187789333Y-95190476D01*
X187765523Y-95214285D01*
X187717904Y-95238095D01*
X187527428Y-95238095D01*
X188289333Y-95476190D02*
X188003619Y-95476190D01*
X188146476Y-95476190D02*
X188146476Y-94976190D01*
X188098857Y-95047619D01*
X188051238Y-95095238D01*
X188003619Y-95119047D01*
D12*
X184880380Y-98004380D02*
X185499428Y-98004380D01*
X185166095Y-98385333D01*
X185308952Y-98385333D01*
X185404190Y-98432952D01*
X185451809Y-98480571D01*
X185499428Y-98575809D01*
X185499428Y-98813904D01*
X185451809Y-98909142D01*
X185404190Y-98956761D01*
X185308952Y-99004380D01*
X185023238Y-99004380D01*
X184928000Y-98956761D01*
X184880380Y-98909142D01*
X185928000Y-98909142D02*
X185975619Y-98956761D01*
X185928000Y-99004380D01*
X185880380Y-98956761D01*
X185928000Y-98909142D01*
X185928000Y-99004380D01*
X186308952Y-98004380D02*
X186928000Y-98004380D01*
X186594666Y-98385333D01*
X186737523Y-98385333D01*
X186832761Y-98432952D01*
X186880380Y-98480571D01*
X186928000Y-98575809D01*
X186928000Y-98813904D01*
X186880380Y-98909142D01*
X186832761Y-98956761D01*
X186737523Y-99004380D01*
X186451809Y-99004380D01*
X186356571Y-98956761D01*
X186308952Y-98909142D01*
X190230095Y-94956380D02*
X189753904Y-94956380D01*
X189706285Y-95432571D01*
X189753904Y-95384952D01*
X189849142Y-95337333D01*
X190087238Y-95337333D01*
X190182476Y-95384952D01*
X190230095Y-95432571D01*
X190277714Y-95527809D01*
X190277714Y-95765904D01*
X190230095Y-95861142D01*
X190182476Y-95908761D01*
X190087238Y-95956380D01*
X189849142Y-95956380D01*
X189753904Y-95908761D01*
X189706285Y-95861142D01*
G04 #@! TO.C,J3*
X220726142Y-96464380D02*
X220726142Y-95464380D01*
X220964238Y-95464380D01*
X221107095Y-95512000D01*
X221202333Y-95607238D01*
X221249952Y-95702476D01*
X221297571Y-95892952D01*
X221297571Y-96035809D01*
X221249952Y-96226285D01*
X221202333Y-96321523D01*
X221107095Y-96416761D01*
X220964238Y-96464380D01*
X220726142Y-96464380D01*
X221583285Y-95464380D02*
X222154714Y-95464380D01*
X221869000Y-96464380D02*
X221869000Y-95464380D01*
X223059476Y-96464380D02*
X222726142Y-95988190D01*
X222488047Y-96464380D02*
X222488047Y-95464380D01*
X222869000Y-95464380D01*
X222964238Y-95512000D01*
X223011857Y-95559619D01*
X223059476Y-95654857D01*
X223059476Y-95797714D01*
X223011857Y-95892952D01*
X222964238Y-95940571D01*
X222869000Y-95988190D01*
X222488047Y-95988190D01*
X221702333Y-99004380D02*
X221369000Y-98528190D01*
X221130904Y-99004380D02*
X221130904Y-98004380D01*
X221511857Y-98004380D01*
X221607095Y-98052000D01*
X221654714Y-98099619D01*
X221702333Y-98194857D01*
X221702333Y-98337714D01*
X221654714Y-98432952D01*
X221607095Y-98480571D01*
X221511857Y-98528190D01*
X221130904Y-98528190D01*
X222035666Y-98004380D02*
X222702333Y-99004380D01*
X222702333Y-98004380D02*
X222035666Y-99004380D01*
X221107095Y-100544380D02*
X221678523Y-100544380D01*
X221392809Y-101544380D02*
X221392809Y-100544380D01*
X221916619Y-100544380D02*
X222583285Y-101544380D01*
X222583285Y-100544380D02*
X221916619Y-101544380D01*
X220535666Y-103084380D02*
X220869000Y-104084380D01*
X221202333Y-103084380D01*
X222107095Y-103989142D02*
X222059476Y-104036761D01*
X221916619Y-104084380D01*
X221821380Y-104084380D01*
X221678523Y-104036761D01*
X221583285Y-103941523D01*
X221535666Y-103846285D01*
X221488047Y-103655809D01*
X221488047Y-103512952D01*
X221535666Y-103322476D01*
X221583285Y-103227238D01*
X221678523Y-103132000D01*
X221821380Y-103084380D01*
X221916619Y-103084380D01*
X222059476Y-103132000D01*
X222107095Y-103179619D01*
X223107095Y-103989142D02*
X223059476Y-104036761D01*
X222916619Y-104084380D01*
X222821380Y-104084380D01*
X222678523Y-104036761D01*
X222583285Y-103941523D01*
X222535666Y-103846285D01*
X222488047Y-103655809D01*
X222488047Y-103512952D01*
X222535666Y-103322476D01*
X222583285Y-103227238D01*
X222678523Y-103132000D01*
X222821380Y-103084380D01*
X222916619Y-103084380D01*
X223059476Y-103132000D01*
X223107095Y-103179619D01*
X221321380Y-106529142D02*
X221273761Y-106576761D01*
X221130904Y-106624380D01*
X221035666Y-106624380D01*
X220892809Y-106576761D01*
X220797571Y-106481523D01*
X220749952Y-106386285D01*
X220702333Y-106195809D01*
X220702333Y-106052952D01*
X220749952Y-105862476D01*
X220797571Y-105767238D01*
X220892809Y-105672000D01*
X221035666Y-105624380D01*
X221130904Y-105624380D01*
X221273761Y-105672000D01*
X221321380Y-105719619D01*
X221607095Y-105624380D02*
X222178523Y-105624380D01*
X221892809Y-106624380D02*
X221892809Y-105624380D01*
X222464238Y-106576761D02*
X222607095Y-106624380D01*
X222845190Y-106624380D01*
X222940428Y-106576761D01*
X222988047Y-106529142D01*
X223035666Y-106433904D01*
X223035666Y-106338666D01*
X222988047Y-106243428D01*
X222940428Y-106195809D01*
X222845190Y-106148190D01*
X222654714Y-106100571D01*
X222559476Y-106052952D01*
X222511857Y-106005333D01*
X222464238Y-105910095D01*
X222464238Y-105814857D01*
X222511857Y-105719619D01*
X222559476Y-105672000D01*
X222654714Y-105624380D01*
X222892809Y-105624380D01*
X223035666Y-105672000D01*
X221107095Y-108212000D02*
X221011857Y-108164380D01*
X220869000Y-108164380D01*
X220726142Y-108212000D01*
X220630904Y-108307238D01*
X220583285Y-108402476D01*
X220535666Y-108592952D01*
X220535666Y-108735809D01*
X220583285Y-108926285D01*
X220630904Y-109021523D01*
X220726142Y-109116761D01*
X220869000Y-109164380D01*
X220964238Y-109164380D01*
X221107095Y-109116761D01*
X221154714Y-109069142D01*
X221154714Y-108735809D01*
X220964238Y-108735809D01*
X221583285Y-109164380D02*
X221583285Y-108164380D01*
X222154714Y-109164380D01*
X222154714Y-108164380D01*
X222630904Y-109164380D02*
X222630904Y-108164380D01*
X222869000Y-108164380D01*
X223011857Y-108212000D01*
X223107095Y-108307238D01*
X223154714Y-108402476D01*
X223202333Y-108592952D01*
X223202333Y-108735809D01*
X223154714Y-108926285D01*
X223107095Y-109021523D01*
X223011857Y-109116761D01*
X222869000Y-109164380D01*
X222630904Y-109164380D01*
G04 #@! TO.C,C7*
D13*
X213748166Y-109144571D02*
X213724357Y-109168380D01*
X213652928Y-109192190D01*
X213605309Y-109192190D01*
X213533880Y-109168380D01*
X213486261Y-109120761D01*
X213462452Y-109073142D01*
X213438642Y-108977904D01*
X213438642Y-108906476D01*
X213462452Y-108811238D01*
X213486261Y-108763619D01*
X213533880Y-108716000D01*
X213605309Y-108692190D01*
X213652928Y-108692190D01*
X213724357Y-108716000D01*
X213748166Y-108739809D01*
X213914833Y-108692190D02*
X214248166Y-108692190D01*
X214033880Y-109192190D01*
G04 #@! TO.C,C6*
X203878666Y-108382571D02*
X203854857Y-108406380D01*
X203783428Y-108430190D01*
X203735809Y-108430190D01*
X203664380Y-108406380D01*
X203616761Y-108358761D01*
X203592952Y-108311142D01*
X203569142Y-108215904D01*
X203569142Y-108144476D01*
X203592952Y-108049238D01*
X203616761Y-108001619D01*
X203664380Y-107954000D01*
X203735809Y-107930190D01*
X203783428Y-107930190D01*
X203854857Y-107954000D01*
X203878666Y-107977809D01*
X204307238Y-107930190D02*
X204212000Y-107930190D01*
X204164380Y-107954000D01*
X204140571Y-107977809D01*
X204092952Y-108049238D01*
X204069142Y-108144476D01*
X204069142Y-108334952D01*
X204092952Y-108382571D01*
X204116761Y-108406380D01*
X204164380Y-108430190D01*
X204259619Y-108430190D01*
X204307238Y-108406380D01*
X204331047Y-108382571D01*
X204354857Y-108334952D01*
X204354857Y-108215904D01*
X204331047Y-108168285D01*
X204307238Y-108144476D01*
X204259619Y-108120666D01*
X204164380Y-108120666D01*
X204116761Y-108144476D01*
X204092952Y-108168285D01*
X204069142Y-108215904D01*
G04 #@! TO.C,C5*
X210736666Y-103556571D02*
X210712857Y-103580380D01*
X210641428Y-103604190D01*
X210593809Y-103604190D01*
X210522380Y-103580380D01*
X210474761Y-103532761D01*
X210450952Y-103485142D01*
X210427142Y-103389904D01*
X210427142Y-103318476D01*
X210450952Y-103223238D01*
X210474761Y-103175619D01*
X210522380Y-103128000D01*
X210593809Y-103104190D01*
X210641428Y-103104190D01*
X210712857Y-103128000D01*
X210736666Y-103151809D01*
X211189047Y-103104190D02*
X210950952Y-103104190D01*
X210927142Y-103342285D01*
X210950952Y-103318476D01*
X210998571Y-103294666D01*
X211117619Y-103294666D01*
X211165238Y-103318476D01*
X211189047Y-103342285D01*
X211212857Y-103389904D01*
X211212857Y-103508952D01*
X211189047Y-103556571D01*
X211165238Y-103580380D01*
X211117619Y-103604190D01*
X210998571Y-103604190D01*
X210950952Y-103580380D01*
X210927142Y-103556571D01*
G04 #@! TO.C,C4*
X214292666Y-99492571D02*
X214268857Y-99516380D01*
X214197428Y-99540190D01*
X214149809Y-99540190D01*
X214078380Y-99516380D01*
X214030761Y-99468761D01*
X214006952Y-99421142D01*
X213983142Y-99325904D01*
X213983142Y-99254476D01*
X214006952Y-99159238D01*
X214030761Y-99111619D01*
X214078380Y-99064000D01*
X214149809Y-99040190D01*
X214197428Y-99040190D01*
X214268857Y-99064000D01*
X214292666Y-99087809D01*
X214721238Y-99206857D02*
X214721238Y-99540190D01*
X214602190Y-99016380D02*
X214483142Y-99373523D01*
X214792666Y-99373523D01*
G04 #@! TO.C,C3*
X202608666Y-94412571D02*
X202584857Y-94436380D01*
X202513428Y-94460190D01*
X202465809Y-94460190D01*
X202394380Y-94436380D01*
X202346761Y-94388761D01*
X202322952Y-94341142D01*
X202299142Y-94245904D01*
X202299142Y-94174476D01*
X202322952Y-94079238D01*
X202346761Y-94031619D01*
X202394380Y-93984000D01*
X202465809Y-93960190D01*
X202513428Y-93960190D01*
X202584857Y-93984000D01*
X202608666Y-94007809D01*
X202775333Y-93960190D02*
X203084857Y-93960190D01*
X202918190Y-94150666D01*
X202989619Y-94150666D01*
X203037238Y-94174476D01*
X203061047Y-94198285D01*
X203084857Y-94245904D01*
X203084857Y-94364952D01*
X203061047Y-94412571D01*
X203037238Y-94436380D01*
X202989619Y-94460190D01*
X202846761Y-94460190D01*
X202799142Y-94436380D01*
X202775333Y-94412571D01*
G04 #@! TO.C,C2*
X202862666Y-91110571D02*
X202838857Y-91134380D01*
X202767428Y-91158190D01*
X202719809Y-91158190D01*
X202648380Y-91134380D01*
X202600761Y-91086761D01*
X202576952Y-91039142D01*
X202553142Y-90943904D01*
X202553142Y-90872476D01*
X202576952Y-90777238D01*
X202600761Y-90729619D01*
X202648380Y-90682000D01*
X202719809Y-90658190D01*
X202767428Y-90658190D01*
X202838857Y-90682000D01*
X202862666Y-90705809D01*
X203053142Y-90705809D02*
X203076952Y-90682000D01*
X203124571Y-90658190D01*
X203243619Y-90658190D01*
X203291238Y-90682000D01*
X203315047Y-90705809D01*
X203338857Y-90753428D01*
X203338857Y-90801047D01*
X203315047Y-90872476D01*
X203029333Y-91158190D01*
X203338857Y-91158190D01*
G04 #@! TO.C,C1*
X215308666Y-95174571D02*
X215284857Y-95198380D01*
X215213428Y-95222190D01*
X215165809Y-95222190D01*
X215094380Y-95198380D01*
X215046761Y-95150761D01*
X215022952Y-95103142D01*
X214999142Y-95007904D01*
X214999142Y-94936476D01*
X215022952Y-94841238D01*
X215046761Y-94793619D01*
X215094380Y-94746000D01*
X215165809Y-94722190D01*
X215213428Y-94722190D01*
X215284857Y-94746000D01*
X215308666Y-94769809D01*
X215784857Y-95222190D02*
X215499142Y-95222190D01*
X215642000Y-95222190D02*
X215642000Y-94722190D01*
X215594380Y-94793619D01*
X215546761Y-94841238D01*
X215499142Y-94865047D01*
G04 #@! TD*
M02*
