G04 #@! TF.GenerationSoftware,KiCad,Pcbnew,5.1.9+dfsg1-1*
G04 #@! TF.CreationDate,2021-07-15T21:40:15-06:00*
G04 #@! TF.ProjectId,ESP_Programmer,4553505f-5072-46f6-9772-616d6d65722e,rev?*
G04 #@! TF.SameCoordinates,Original*
G04 #@! TF.FileFunction,Soldermask,Bot*
G04 #@! TF.FilePolarity,Negative*
%FSLAX46Y46*%
G04 Gerber Fmt 4.6, Leading zero omitted, Abs format (unit mm)*
G04 Created by KiCad (PCBNEW 5.1.9+dfsg1-1) date 2021-07-15 21:40:15*
%MOMM*%
%LPD*%
G01*
G04 APERTURE LIST*
G04 #@! TA.AperFunction,Profile*
%ADD10C,0.050000*%
G04 #@! TD*
%ADD11O,1.800000X1.800000*%
%ADD12O,1.350000X1.150000*%
%ADD13O,2.000000X1.300000*%
%ADD14C,5.500000*%
G04 APERTURE END LIST*
D10*
X184658000Y-116840000D02*
X195580000Y-116840000D01*
X184658000Y-88138000D02*
X184658000Y-116840000D01*
X184912000Y-88138000D02*
X184658000Y-88138000D01*
X226822000Y-88138000D02*
X184912000Y-88138000D01*
X226822000Y-116840000D02*
X226822000Y-88138000D01*
X226568000Y-116840000D02*
X226822000Y-116840000D01*
X195580000Y-116840000D02*
X226568000Y-116840000D01*
D11*
G04 #@! TO.C,J4*
X224790000Y-108712000D03*
X224790000Y-106172000D03*
X224790000Y-103632000D03*
X224790000Y-101092000D03*
X224790000Y-98552000D03*
G36*
G01*
X223890000Y-96862000D02*
X223890000Y-95162000D01*
G75*
G02*
X223940000Y-95112000I50000J0D01*
G01*
X225640000Y-95112000D01*
G75*
G02*
X225690000Y-95162000I0J-50000D01*
G01*
X225690000Y-96862000D01*
G75*
G02*
X225640000Y-96912000I-50000J0D01*
G01*
X223940000Y-96912000D01*
G75*
G02*
X223890000Y-96862000I0J50000D01*
G01*
G37*
G04 #@! TD*
G04 #@! TO.C,J3*
X218694000Y-108712000D03*
X218694000Y-106172000D03*
X218694000Y-103632000D03*
X218694000Y-101092000D03*
X218694000Y-98552000D03*
G36*
G01*
X217794000Y-96862000D02*
X217794000Y-95162000D01*
G75*
G02*
X217844000Y-95112000I50000J0D01*
G01*
X219544000Y-95112000D01*
G75*
G02*
X219594000Y-95162000I0J-50000D01*
G01*
X219594000Y-96862000D01*
G75*
G02*
X219544000Y-96912000I-50000J0D01*
G01*
X217844000Y-96912000D01*
G75*
G02*
X217794000Y-96862000I0J50000D01*
G01*
G37*
G04 #@! TD*
G04 #@! TO.C,J2*
X201168000Y-99822000D03*
X198628000Y-99822000D03*
X196088000Y-99822000D03*
G36*
G01*
X194398000Y-100722000D02*
X192698000Y-100722000D01*
G75*
G02*
X192648000Y-100672000I0J50000D01*
G01*
X192648000Y-98972000D01*
G75*
G02*
X192698000Y-98922000I50000J0D01*
G01*
X194398000Y-98922000D01*
G75*
G02*
X194448000Y-98972000I0J-50000D01*
G01*
X194448000Y-100672000D01*
G75*
G02*
X194398000Y-100722000I-50000J0D01*
G01*
G37*
G04 #@! TD*
D12*
G04 #@! TO.C,J1*
X189047000Y-102169000D03*
D13*
X186047000Y-100219000D03*
X186047000Y-108569000D03*
D12*
X189047000Y-106619000D03*
G04 #@! TD*
D14*
G04 #@! TO.C,H4*
X187706000Y-113792000D03*
G04 #@! TD*
G04 #@! TO.C,H3*
X223774000Y-113792000D03*
G04 #@! TD*
G04 #@! TO.C,H2*
X187706000Y-91186000D03*
G04 #@! TD*
G04 #@! TO.C,H1*
X223774000Y-91186000D03*
G04 #@! TD*
M02*
