M48
; DRILL file {KiCad 5.1.10-88a1d61d58~88~ubuntu20.04.1} date Wed May 19 21:03:50 2021
; FORMAT={-:-/ absolute / metric / decimal}
; #@! TF.CreationDate,2021-05-19T21:03:50-06:00
; #@! TF.GenerationSoftware,Kicad,Pcbnew,5.1.10-88a1d61d58~88~ubuntu20.04.1
FMAT,2
METRIC
T1C0.400
T2C0.600
T3C0.650
T4C1.000
T5C2.700
%
G90
G05
T1
X188.976Y-98.552
X191.77Y-89.408
X191.902Y-95.606
X194.24Y-111.299
X195.072Y-103.124
X195.072Y-110.744
X195.994Y-109.568
X196.342Y-102.108
X196.85Y-103.378
X198.156Y-94.234
X198.628Y-108.966
X199.344Y-103.932
X199.644Y-110.744
X201.536Y-90.574
X203.37Y-94.572
X203.454Y-91.948
X204.506Y-97.282
X205.232Y-92.456
X205.268Y-89.662
X207.264Y-113.792
X207.481Y-97.282
X209.587Y-104.648
X211.799Y-115.316
X212.852Y-92.964
X214.412Y-112.268
T4
X193.548Y-99.822
X196.088Y-99.822
X198.628Y-99.822
X201.168Y-99.822
X218.694Y-96.012
X218.694Y-98.552
X218.694Y-101.092
X218.694Y-103.632
X218.694Y-106.172
X218.694Y-108.712
X224.79Y-96.012
X224.79Y-98.552
X224.79Y-101.092
X224.79Y-103.632
X224.79Y-106.172
X224.79Y-108.712
T5
X187.706Y-91.186
X187.706Y-113.792
X223.774Y-91.186
X223.774Y-113.792
T2
X186.397Y-100.219G85X185.697Y-100.219
G05
X186.397Y-108.569G85X185.697Y-108.569
G05
T3
X189.147Y-102.169G85X188.947Y-102.169
G05
X189.147Y-106.619G85X188.947Y-106.619
G05
T0
M30
