G04 #@! TF.GenerationSoftware,KiCad,Pcbnew,5.1.10-88a1d61d58~88~ubuntu20.04.1*
G04 #@! TF.CreationDate,2021-05-19T21:03:50-06:00*
G04 #@! TF.ProjectId,ESP_Programmer,4553505f-5072-46f6-9772-616d6d65722e,rev?*
G04 #@! TF.SameCoordinates,Original*
G04 #@! TF.FileFunction,Copper,L2,Bot*
G04 #@! TF.FilePolarity,Positive*
%FSLAX46Y46*%
G04 Gerber Fmt 4.6, Leading zero omitted, Abs format (unit mm)*
G04 Created by KiCad (PCBNEW 5.1.10-88a1d61d58~88~ubuntu20.04.1) date 2021-05-19 21:03:50*
%MOMM*%
%LPD*%
G01*
G04 APERTURE LIST*
G04 #@! TA.AperFunction,Profile*
%ADD10C,0.050000*%
G04 #@! TD*
G04 #@! TA.AperFunction,ComponentPad*
%ADD11O,1.700000X1.700000*%
G04 #@! TD*
G04 #@! TA.AperFunction,ComponentPad*
%ADD12R,1.700000X1.700000*%
G04 #@! TD*
G04 #@! TA.AperFunction,ComponentPad*
%ADD13O,1.250000X1.050000*%
G04 #@! TD*
G04 #@! TA.AperFunction,ComponentPad*
%ADD14O,1.900000X1.200000*%
G04 #@! TD*
G04 #@! TA.AperFunction,ComponentPad*
%ADD15C,5.400000*%
G04 #@! TD*
G04 #@! TA.AperFunction,ViaPad*
%ADD16C,0.800000*%
G04 #@! TD*
G04 #@! TA.AperFunction,Conductor*
%ADD17C,0.250000*%
G04 #@! TD*
G04 #@! TA.AperFunction,Conductor*
%ADD18C,0.254000*%
G04 #@! TD*
G04 #@! TA.AperFunction,Conductor*
%ADD19C,0.350000*%
G04 #@! TD*
G04 APERTURE END LIST*
D10*
X184658000Y-116840000D02*
X195580000Y-116840000D01*
X184658000Y-88138000D02*
X184658000Y-116840000D01*
X184912000Y-88138000D02*
X184658000Y-88138000D01*
X226822000Y-88138000D02*
X184912000Y-88138000D01*
X226822000Y-116840000D02*
X226822000Y-88138000D01*
X226568000Y-116840000D02*
X226822000Y-116840000D01*
X195580000Y-116840000D02*
X226568000Y-116840000D01*
D11*
G04 #@! TO.P,J4,6*
G04 #@! TO.N,GND*
X224790000Y-108712000D03*
G04 #@! TO.P,J4,5*
G04 #@! TO.N,GPIO0*
X224790000Y-106172000D03*
G04 #@! TO.P,J4,4*
G04 #@! TO.N,PWR_IO*
X224790000Y-103632000D03*
G04 #@! TO.P,J4,3*
G04 #@! TO.N,TXO*
X224790000Y-101092000D03*
G04 #@! TO.P,J4,2*
G04 #@! TO.N,RXI*
X224790000Y-98552000D03*
D12*
G04 #@! TO.P,J4,1*
G04 #@! TO.N,RST*
X224790000Y-96012000D03*
G04 #@! TD*
D11*
G04 #@! TO.P,J3,6*
G04 #@! TO.N,GND*
X218694000Y-108712000D03*
G04 #@! TO.P,J3,5*
G04 #@! TO.N,CTS*
X218694000Y-106172000D03*
G04 #@! TO.P,J3,4*
G04 #@! TO.N,PWR_IO*
X218694000Y-103632000D03*
G04 #@! TO.P,J3,3*
G04 #@! TO.N,TXO*
X218694000Y-101092000D03*
G04 #@! TO.P,J3,2*
G04 #@! TO.N,RXI*
X218694000Y-98552000D03*
D12*
G04 #@! TO.P,J3,1*
G04 #@! TO.N,DTR*
X218694000Y-96012000D03*
G04 #@! TD*
D11*
G04 #@! TO.P,J2,4*
G04 #@! TO.N,GND*
X201168000Y-99822000D03*
G04 #@! TO.P,J2,3*
G04 #@! TO.N,D+*
X198628000Y-99822000D03*
G04 #@! TO.P,J2,2*
G04 #@! TO.N,D-*
X196088000Y-99822000D03*
D12*
G04 #@! TO.P,J2,1*
G04 #@! TO.N,+5V*
X193548000Y-99822000D03*
G04 #@! TD*
D13*
G04 #@! TO.P,J1,SH*
G04 #@! TO.N,N/C*
X189047000Y-106619000D03*
D14*
X186047000Y-108569000D03*
X186047000Y-100219000D03*
D13*
X189047000Y-102169000D03*
G04 #@! TD*
D15*
G04 #@! TO.P,H4,1*
G04 #@! TO.N,GND*
X187706000Y-113792000D03*
G04 #@! TD*
G04 #@! TO.P,H3,1*
G04 #@! TO.N,GND*
X223774000Y-113792000D03*
G04 #@! TD*
G04 #@! TO.P,H2,1*
G04 #@! TO.N,GND*
X187706000Y-91186000D03*
G04 #@! TD*
G04 #@! TO.P,H1,1*
G04 #@! TO.N,GND*
X223774000Y-91186000D03*
G04 #@! TD*
D16*
G04 #@! TO.N,GND*
X203454000Y-91948000D03*
X201535902Y-90574402D03*
G04 #@! TO.N,+5V*
X199344347Y-103931653D03*
X203370095Y-94571905D03*
G04 #@! TO.N,+3V3*
X198156500Y-94234000D03*
X204506500Y-97282000D03*
G04 #@! TO.N,RST*
X207264000Y-113792000D03*
X209586500Y-104648000D03*
X212852000Y-92964000D03*
X207481500Y-97282000D03*
G04 #@! TO.N,GPIO0*
X191770000Y-89408000D03*
X191902004Y-95605996D03*
G04 #@! TO.N,RXLED*
X205232000Y-92456000D03*
X196850000Y-103378000D03*
G04 #@! TO.N,TXLED*
X195072000Y-103124000D03*
X205268500Y-89662000D03*
G04 #@! TO.N,D-*
X196342000Y-102108000D03*
G04 #@! TO.N,CTS*
X199644000Y-110744000D03*
G04 #@! TO.N,PWR_IO*
X188976000Y-98552000D03*
X195072000Y-110744000D03*
G04 #@! TO.N,TXO*
X198628000Y-108966000D03*
G04 #@! TO.N,RXI*
X195994154Y-109567846D03*
G04 #@! TO.N,DTR*
X214412500Y-112268000D03*
G04 #@! TO.N,RTS*
X194239949Y-111298701D03*
X211799500Y-115316000D03*
G04 #@! TD*
D17*
G04 #@! TO.N,GND*
X218694000Y-108712000D02*
X224790000Y-108712000D01*
X202909500Y-91948000D02*
X201535902Y-90574402D01*
X203454000Y-91948000D02*
X202909500Y-91948000D01*
G04 #@! TO.N,+5V*
X196652001Y-98646999D02*
X197263001Y-99257999D01*
X194723001Y-98646999D02*
X196652001Y-98646999D01*
X197263001Y-101850307D02*
X199344347Y-103931653D01*
X197263001Y-99257999D02*
X197263001Y-101850307D01*
X193548000Y-99822000D02*
X194723001Y-98646999D01*
X201949095Y-94571905D02*
X203370095Y-94571905D01*
X197263001Y-99257999D02*
X201949095Y-94571905D01*
G04 #@! TO.N,+3V3*
X204506500Y-94635308D02*
X204506500Y-97282000D01*
X203718096Y-93846904D02*
X204506500Y-94635308D01*
X198543596Y-93846904D02*
X203718096Y-93846904D01*
X198156500Y-94234000D02*
X198543596Y-93846904D01*
G04 #@! TO.N,RST*
X209586500Y-111469500D02*
X209586500Y-104648000D01*
X207264000Y-113792000D02*
X209586500Y-111469500D01*
X208534000Y-97282000D02*
X207481500Y-97282000D01*
X212852000Y-92964000D02*
X208534000Y-97282000D01*
G04 #@! TO.N,GPIO0*
X191770000Y-95473992D02*
X191902004Y-95605996D01*
X191770000Y-89408000D02*
X191770000Y-95473992D01*
G04 #@! TO.N,RXLED*
X198128654Y-104656654D02*
X196850000Y-103378000D01*
X199692348Y-104656654D02*
X198128654Y-104656654D01*
X205232000Y-99117002D02*
X199692348Y-104656654D01*
X205232000Y-92456000D02*
X205232000Y-99117002D01*
G04 #@! TO.N,TXLED*
X201422998Y-89662000D02*
X205268500Y-89662000D01*
X192372999Y-100990684D02*
X192372999Y-98711999D01*
X194506315Y-103124000D02*
X192372999Y-100990684D01*
X192372999Y-98711999D02*
X201422998Y-89662000D01*
X195072000Y-103124000D02*
X194506315Y-103124000D01*
G04 #@! TO.N,D-*
X196342000Y-100076000D02*
X196088000Y-99822000D01*
X196342000Y-102108000D02*
X196342000Y-100076000D01*
G04 #@! TO.N,CTS*
X219869001Y-100527999D02*
X219869001Y-104996999D01*
X219258001Y-99916999D02*
X219869001Y-100527999D01*
X206603999Y-99916999D02*
X219258001Y-99916999D01*
X219869001Y-104996999D02*
X218694000Y-106172000D01*
X197902999Y-108617999D02*
X206603999Y-99916999D01*
X197902999Y-109568684D02*
X197902999Y-108617999D01*
X199078315Y-110744000D02*
X197902999Y-109568684D01*
X199644000Y-110744000D02*
X199078315Y-110744000D01*
G04 #@! TO.N,PWR_IO*
X188976000Y-98552000D02*
X195072000Y-104648000D01*
X207808999Y-114517001D02*
X218694000Y-103632000D01*
X195072000Y-110236000D02*
X195589306Y-110236000D01*
X199870307Y-114517001D02*
X207808999Y-114517001D01*
X195589306Y-110236000D02*
X199870307Y-114517001D01*
X195072000Y-104648000D02*
X195072000Y-110236000D01*
X195072000Y-110236000D02*
X195072000Y-110744000D01*
G04 #@! TO.N,TXO*
X203671001Y-103922999D02*
X215863001Y-103922999D01*
X215863001Y-103922999D02*
X218694000Y-101092000D01*
X198628000Y-108966000D02*
X203671001Y-103922999D01*
G04 #@! TO.N,RXI*
X218694000Y-98552000D02*
X207010000Y-98552000D01*
X207010000Y-98552000D02*
X195994154Y-109567846D01*
G04 #@! TO.N,DTR*
X214412500Y-111254498D02*
X214412500Y-112268000D01*
X219068003Y-107536999D02*
X218129999Y-107536999D01*
X220319010Y-106285992D02*
X219068003Y-107536999D01*
X220319010Y-97637010D02*
X220319010Y-106285992D01*
X218129999Y-107536999D02*
X214412500Y-111254498D01*
X218694000Y-96012000D02*
X220319010Y-97637010D01*
G04 #@! TO.N,RTS*
X198257248Y-115316000D02*
X211799500Y-115316000D01*
X194239949Y-111298701D02*
X198257248Y-115316000D01*
G04 #@! TD*
D18*
G04 #@! TO.N,+3V3*
X200876128Y-91378339D02*
X201045646Y-91491607D01*
X201234004Y-91569628D01*
X201433963Y-91609402D01*
X201496101Y-91609402D01*
X202345701Y-92459003D01*
X202369499Y-92488001D01*
X202398497Y-92511799D01*
X202485223Y-92582974D01*
X202617253Y-92653546D01*
X202730051Y-92687762D01*
X202794226Y-92751937D01*
X202963744Y-92865205D01*
X203152102Y-92943226D01*
X203352061Y-92983000D01*
X203555939Y-92983000D01*
X203755898Y-92943226D01*
X203944256Y-92865205D01*
X204113774Y-92751937D01*
X204215378Y-92650333D01*
X204236774Y-92757898D01*
X204314795Y-92946256D01*
X204428063Y-93115774D01*
X204472000Y-93159711D01*
X204472001Y-98802199D01*
X200075303Y-103198898D01*
X200004121Y-103127716D01*
X199834603Y-103014448D01*
X199646245Y-102936427D01*
X199446286Y-102896653D01*
X199384149Y-102896653D01*
X198023001Y-101535506D01*
X198023001Y-101178753D01*
X198194842Y-101249932D01*
X198481740Y-101307000D01*
X198774260Y-101307000D01*
X199061158Y-101249932D01*
X199331411Y-101137990D01*
X199574632Y-100975475D01*
X199781475Y-100768632D01*
X199898000Y-100594240D01*
X200014525Y-100768632D01*
X200221368Y-100975475D01*
X200464589Y-101137990D01*
X200734842Y-101249932D01*
X201021740Y-101307000D01*
X201314260Y-101307000D01*
X201601158Y-101249932D01*
X201871411Y-101137990D01*
X202114632Y-100975475D01*
X202321475Y-100768632D01*
X202483990Y-100525411D01*
X202595932Y-100255158D01*
X202653000Y-99968260D01*
X202653000Y-99675740D01*
X202595932Y-99388842D01*
X202483990Y-99118589D01*
X202321475Y-98875368D01*
X202114632Y-98668525D01*
X201871411Y-98506010D01*
X201601158Y-98394068D01*
X201314260Y-98337000D01*
X201021740Y-98337000D01*
X200734842Y-98394068D01*
X200464589Y-98506010D01*
X200221368Y-98668525D01*
X200014525Y-98875368D01*
X199898000Y-99049760D01*
X199781475Y-98875368D01*
X199574632Y-98668525D01*
X199331411Y-98506010D01*
X199160560Y-98435241D01*
X202263897Y-95331905D01*
X202666384Y-95331905D01*
X202710321Y-95375842D01*
X202879839Y-95489110D01*
X203068197Y-95567131D01*
X203268156Y-95606905D01*
X203472034Y-95606905D01*
X203671993Y-95567131D01*
X203860351Y-95489110D01*
X204029869Y-95375842D01*
X204174032Y-95231679D01*
X204287300Y-95062161D01*
X204365321Y-94873803D01*
X204405095Y-94673844D01*
X204405095Y-94469966D01*
X204365321Y-94270007D01*
X204287300Y-94081649D01*
X204174032Y-93912131D01*
X204029869Y-93767968D01*
X203860351Y-93654700D01*
X203671993Y-93576679D01*
X203472034Y-93536905D01*
X203268156Y-93536905D01*
X203068197Y-93576679D01*
X202879839Y-93654700D01*
X202710321Y-93767968D01*
X202666384Y-93811905D01*
X201986420Y-93811905D01*
X201949095Y-93808229D01*
X201911770Y-93811905D01*
X201911762Y-93811905D01*
X201800109Y-93822902D01*
X201656848Y-93866359D01*
X201524819Y-93936931D01*
X201409094Y-94031904D01*
X201385296Y-94060902D01*
X197263001Y-98183198D01*
X197215804Y-98136001D01*
X197192002Y-98106998D01*
X197076277Y-98012025D01*
X196944248Y-97941453D01*
X196800987Y-97897996D01*
X196689334Y-97886999D01*
X196689323Y-97886999D01*
X196652001Y-97883323D01*
X196614679Y-97886999D01*
X194760323Y-97886999D01*
X194723000Y-97883323D01*
X194685677Y-97886999D01*
X194685668Y-97886999D01*
X194574015Y-97897996D01*
X194430754Y-97941453D01*
X194298725Y-98012025D01*
X194183000Y-98106998D01*
X194159202Y-98135996D01*
X193961270Y-98333928D01*
X193825871Y-98333928D01*
X200828794Y-91331005D01*
X200876128Y-91378339D01*
G04 #@! TA.AperFunction,Conductor*
D19*
G36*
X200876128Y-91378339D02*
G01*
X201045646Y-91491607D01*
X201234004Y-91569628D01*
X201433963Y-91609402D01*
X201496101Y-91609402D01*
X202345701Y-92459003D01*
X202369499Y-92488001D01*
X202398497Y-92511799D01*
X202485223Y-92582974D01*
X202617253Y-92653546D01*
X202730051Y-92687762D01*
X202794226Y-92751937D01*
X202963744Y-92865205D01*
X203152102Y-92943226D01*
X203352061Y-92983000D01*
X203555939Y-92983000D01*
X203755898Y-92943226D01*
X203944256Y-92865205D01*
X204113774Y-92751937D01*
X204215378Y-92650333D01*
X204236774Y-92757898D01*
X204314795Y-92946256D01*
X204428063Y-93115774D01*
X204472000Y-93159711D01*
X204472001Y-98802199D01*
X200075303Y-103198898D01*
X200004121Y-103127716D01*
X199834603Y-103014448D01*
X199646245Y-102936427D01*
X199446286Y-102896653D01*
X199384149Y-102896653D01*
X198023001Y-101535506D01*
X198023001Y-101178753D01*
X198194842Y-101249932D01*
X198481740Y-101307000D01*
X198774260Y-101307000D01*
X199061158Y-101249932D01*
X199331411Y-101137990D01*
X199574632Y-100975475D01*
X199781475Y-100768632D01*
X199898000Y-100594240D01*
X200014525Y-100768632D01*
X200221368Y-100975475D01*
X200464589Y-101137990D01*
X200734842Y-101249932D01*
X201021740Y-101307000D01*
X201314260Y-101307000D01*
X201601158Y-101249932D01*
X201871411Y-101137990D01*
X202114632Y-100975475D01*
X202321475Y-100768632D01*
X202483990Y-100525411D01*
X202595932Y-100255158D01*
X202653000Y-99968260D01*
X202653000Y-99675740D01*
X202595932Y-99388842D01*
X202483990Y-99118589D01*
X202321475Y-98875368D01*
X202114632Y-98668525D01*
X201871411Y-98506010D01*
X201601158Y-98394068D01*
X201314260Y-98337000D01*
X201021740Y-98337000D01*
X200734842Y-98394068D01*
X200464589Y-98506010D01*
X200221368Y-98668525D01*
X200014525Y-98875368D01*
X199898000Y-99049760D01*
X199781475Y-98875368D01*
X199574632Y-98668525D01*
X199331411Y-98506010D01*
X199160560Y-98435241D01*
X202263897Y-95331905D01*
X202666384Y-95331905D01*
X202710321Y-95375842D01*
X202879839Y-95489110D01*
X203068197Y-95567131D01*
X203268156Y-95606905D01*
X203472034Y-95606905D01*
X203671993Y-95567131D01*
X203860351Y-95489110D01*
X204029869Y-95375842D01*
X204174032Y-95231679D01*
X204287300Y-95062161D01*
X204365321Y-94873803D01*
X204405095Y-94673844D01*
X204405095Y-94469966D01*
X204365321Y-94270007D01*
X204287300Y-94081649D01*
X204174032Y-93912131D01*
X204029869Y-93767968D01*
X203860351Y-93654700D01*
X203671993Y-93576679D01*
X203472034Y-93536905D01*
X203268156Y-93536905D01*
X203068197Y-93576679D01*
X202879839Y-93654700D01*
X202710321Y-93767968D01*
X202666384Y-93811905D01*
X201986420Y-93811905D01*
X201949095Y-93808229D01*
X201911770Y-93811905D01*
X201911762Y-93811905D01*
X201800109Y-93822902D01*
X201656848Y-93866359D01*
X201524819Y-93936931D01*
X201409094Y-94031904D01*
X201385296Y-94060902D01*
X197263001Y-98183198D01*
X197215804Y-98136001D01*
X197192002Y-98106998D01*
X197076277Y-98012025D01*
X196944248Y-97941453D01*
X196800987Y-97897996D01*
X196689334Y-97886999D01*
X196689323Y-97886999D01*
X196652001Y-97883323D01*
X196614679Y-97886999D01*
X194760323Y-97886999D01*
X194723000Y-97883323D01*
X194685677Y-97886999D01*
X194685668Y-97886999D01*
X194574015Y-97897996D01*
X194430754Y-97941453D01*
X194298725Y-98012025D01*
X194183000Y-98106998D01*
X194159202Y-98135996D01*
X193961270Y-98333928D01*
X193825871Y-98333928D01*
X200828794Y-91331005D01*
X200876128Y-91378339D01*
G37*
G04 #@! TD.AperFunction*
G04 #@! TD*
M02*
